<svg id="bold" enable-background="new 0 0 24 24" height="512" viewBox="0 0 24 24" width="512" xmlns="http://www.w3.org/2000/svg"><path d="m16 3.5v-.5c0-1.65-1.35-3-3-3h-10c-1.65 0-3 1.35-3 3v18c0 1.65 1.35 3 3 3h10c1.65 0 3-1.35 3-3v-3.88c-.36.24-.8.38-1.25.38-.26 0-.51-.04-.75-.13v3.63c0 .55-.45 1-1 1h-10c-.55 0-1-.45-1-1v-18c0-.55.45-1 1-1h.5c.55 0 1 .45 1 1s.45 1 1 1h5c.55 0 1-.45 1-1s.45-1 1-1h.5c.55 0 1 .45 1 1v.5z"/><circle cx="8" cy="16" r="2"/><path d="m12 21.75v.25h-8v-.25c0-1.52 1.23-2.75 2.75-2.75h2.5c1.52 0 2.75 1.23 2.75 2.75z"/><path d="m21.25 5h-8.5c-.965 0-1.75.785-1.75 1.75v4.5c0 .965.785 1.75 1.75 1.75h1.25v2.25c0 .309.19.587.478.699.088.034.181.051.272.051.206 0 .408-.085.553-.243l2.527-2.757h3.42c.965 0 1.75-.785 1.75-1.75v-4.5c0-.965-.785-1.75-1.75-1.75zm-6.75 4.75c-.414 0-.75-.336-.75-.75s.336-.75.75-.75.75.336.75.75-.336.75-.75.75zm2.5 0c-.414 0-.75-.336-.75-.75s.336-.75.75-.75.75.336.75.75-.336.75-.75.75zm2.5 0c-.414 0-.75-.336-.75-.75s.336-.75.75-.75.75.336.75.75-.336.75-.75.75z"/></svg>